<?xml version="1.0" encoding="UTF-8" standalone="no"?>
<!DOCTYPE svg PUBLIC "-//W3C//DTD SVG 1.1//EN"
 "http://www.w3.org/Graphics/SVG/1.1/DTD/svg11.dtd">
<!-- Generated by graphviz version 2.43.0 (0)
 -->
<!-- Title: velocity_bcs.H Pages: 1 -->
<svg width="2720pt" height="341pt"
 viewBox="0.00 0.00 2720.00 341.00" xmlns="http://www.w3.org/2000/svg" xmlns:xlink="http://www.w3.org/1999/xlink">
<g id="graph0" class="graph" transform="scale(1 1) rotate(0) translate(4 337)">
<title>velocity_bcs.H</title>
<polygon fill="white" stroke="transparent" points="-4,4 -4,-337 2716,-337 2716,4 -4,4"/>
<!-- Node1 -->
<g id="node1" class="node">
<title>Node1</title>
<g id="a_node1"><a xlink:title=" ">
<polygon fill="#bfbfbf" stroke="black" points="2019.5,-313.5 2019.5,-332.5 2107.5,-332.5 2107.5,-313.5 2019.5,-313.5"/>
<text text-anchor="middle" x="2063.5" y="-320.5" font-family="Helvetica,sans-Serif" font-size="10.00">velocity_bcs.H</text>
</a>
</g>
</g>
<!-- Node2 -->
<g id="node2" class="node">
<title>Node2</title>
<g id="a_node2"><a xlink:href="_field_b_c_ops_8_h.html" target="_top" xlink:title=" ">
<polygon fill="white" stroke="black" points="1259.5,-185 1259.5,-204 1415.5,-204 1415.5,-185 1259.5,-185"/>
<text text-anchor="middle" x="1337.5" y="-192" font-family="Helvetica,sans-Serif" font-size="10.00">amr&#45;wind/core/FieldBCOps.H</text>
</a>
</g>
</g>
<!-- Node1&#45;&gt;Node2 -->
<g id="edge1" class="edge">
<title>Node1&#45;&gt;Node2</title>
<path fill="none" stroke="midnightblue" d="M2019.25,-319.45C1942.61,-314.53 1780.43,-301.97 1645.5,-277 1545.96,-258.58 1431.33,-224.85 1374.06,-207.11"/>
<polygon fill="midnightblue" stroke="midnightblue" points="1374.97,-203.72 1364.38,-204.09 1372.89,-210.41 1374.97,-203.72"/>
</g>
<!-- Node18 -->
<g id="node18" class="node">
<title>Node18</title>
<g id="a_node18"><a xlink:href="_field_fill_patch_ops_8_h.html" target="_top" xlink:title=" ">
<polygon fill="white" stroke="black" points="1654.5,-246.5 1654.5,-276.5 1808.5,-276.5 1808.5,-246.5 1654.5,-246.5"/>
<text text-anchor="start" x="1662.5" y="-264.5" font-family="Helvetica,sans-Serif" font-size="10.00">amr&#45;wind/core/FieldFillPatch</text>
<text text-anchor="middle" x="1731.5" y="-253.5" font-family="Helvetica,sans-Serif" font-size="10.00">Ops.H</text>
</a>
</g>
</g>
<!-- Node1&#45;&gt;Node18 -->
<g id="edge22" class="edge">
<title>Node1&#45;&gt;Node18</title>
<path fill="none" stroke="midnightblue" d="M2019.41,-314.1C1968.43,-304.96 1883.25,-289.7 1818.74,-278.13"/>
<polygon fill="midnightblue" stroke="midnightblue" points="1819.03,-274.63 1808.57,-276.31 1817.8,-281.52 1819.03,-274.63"/>
</g>
<!-- Node19 -->
<g id="node19" class="node">
<title>Node19</title>
<g id="a_node19"><a xlink:href="_sim_time_8_h.html" target="_top" xlink:title=" ">
<polygon fill="white" stroke="black" points="1991.5,-185 1991.5,-204 2135.5,-204 2135.5,-185 1991.5,-185"/>
<text text-anchor="middle" x="2063.5" y="-192" font-family="Helvetica,sans-Serif" font-size="10.00">amr&#45;wind/core/SimTime.H</text>
</a>
</g>
</g>
<!-- Node1&#45;&gt;Node19 -->
<g id="edge70" class="edge">
<title>Node1&#45;&gt;Node19</title>
<path fill="none" stroke="midnightblue" d="M2063.5,-313.31C2063.5,-292.99 2063.5,-242.05 2063.5,-214.28"/>
<polygon fill="midnightblue" stroke="midnightblue" points="2067,-214.26 2063.5,-204.26 2060,-214.26 2067,-214.26"/>
</g>
<!-- Node28 -->
<g id="node28" class="node">
<title>Node28</title>
<g id="a_node28"><a xlink:href="_field_repo_8_h.html" target="_top" xlink:title=" ">
<polygon fill="white" stroke="black" points="749,-185 749,-204 898,-204 898,-185 749,-185"/>
<text text-anchor="middle" x="823.5" y="-192" font-family="Helvetica,sans-Serif" font-size="10.00">amr&#45;wind/core/FieldRepo.H</text>
</a>
</g>
</g>
<!-- Node1&#45;&gt;Node28 -->
<g id="edge41" class="edge">
<title>Node1&#45;&gt;Node28</title>
<path fill="none" stroke="midnightblue" d="M2019.33,-318.92C1926.01,-312.28 1701.96,-295.73 1514.5,-277 1290.39,-254.61 1026.18,-221.6 899.17,-205.32"/>
<polygon fill="midnightblue" stroke="midnightblue" points="899.52,-201.84 889.16,-204.03 898.63,-208.78 899.52,-201.84"/>
</g>
<!-- Node34 -->
<g id="node34" class="node">
<title>Node34</title>
<g id="a_node34"><a xlink:href="_linear_profile_8_h.html" target="_top" xlink:title=" ">
<polygon fill="white" stroke="black" points="2585,-179.5 2585,-209.5 2712,-209.5 2712,-179.5 2585,-179.5"/>
<text text-anchor="start" x="2593" y="-197.5" font-family="Helvetica,sans-Serif" font-size="10.00">amr&#45;wind/physics/udfs</text>
<text text-anchor="middle" x="2648.5" y="-186.5" font-family="Helvetica,sans-Serif" font-size="10.00">/LinearProfile.H</text>
</a>
</g>
</g>
<!-- Node1&#45;&gt;Node34 -->
<g id="edge71" class="edge">
<title>Node1&#45;&gt;Node34</title>
<path fill="none" stroke="midnightblue" d="M2107.14,-313.49C2152.14,-304.65 2224.31,-290.27 2286.5,-277 2388.04,-255.33 2505.21,-228.64 2578.08,-211.84"/>
<polygon fill="midnightblue" stroke="midnightblue" points="2579.11,-215.2 2588.06,-209.54 2577.53,-208.38 2579.11,-215.2"/>
</g>
<!-- Node35 -->
<g id="node35" class="node">
<title>Node35</title>
<g id="a_node35"><a xlink:href="_power_law_profile_8_h.html" target="_top" xlink:title=" ">
<polygon fill="white" stroke="black" points="2295,-179.5 2295,-209.5 2422,-209.5 2422,-179.5 2295,-179.5"/>
<text text-anchor="start" x="2303" y="-197.5" font-family="Helvetica,sans-Serif" font-size="10.00">amr&#45;wind/physics/udfs</text>
<text text-anchor="middle" x="2358.5" y="-186.5" font-family="Helvetica,sans-Serif" font-size="10.00">/PowerLawProfile.H</text>
</a>
</g>
</g>
<!-- Node1&#45;&gt;Node35 -->
<g id="edge74" class="edge">
<title>Node1&#45;&gt;Node35</title>
<path fill="none" stroke="midnightblue" d="M2083.78,-313.31C2131.45,-292.86 2251.46,-241.4 2315.95,-213.75"/>
<polygon fill="midnightblue" stroke="midnightblue" points="2317.62,-216.84 2325.43,-209.68 2314.86,-210.41 2317.62,-216.84"/>
</g>
<!-- Node36 -->
<g id="node36" class="node">
<title>Node36</title>
<g id="a_node36"><a xlink:href="_burggraf_lid_8_h.html" target="_top" xlink:title=" ">
<polygon fill="white" stroke="black" points="2440,-179.5 2440,-209.5 2567,-209.5 2567,-179.5 2440,-179.5"/>
<text text-anchor="start" x="2448" y="-197.5" font-family="Helvetica,sans-Serif" font-size="10.00">amr&#45;wind/physics/udfs</text>
<text text-anchor="middle" x="2503.5" y="-186.5" font-family="Helvetica,sans-Serif" font-size="10.00">/BurggrafLid.H</text>
</a>
</g>
</g>
<!-- Node1&#45;&gt;Node36 -->
<g id="edge77" class="edge">
<title>Node1&#45;&gt;Node36</title>
<path fill="none" stroke="midnightblue" d="M2093.51,-313.49C2125.3,-304.47 2176.95,-289.78 2221.5,-277 2298.9,-254.79 2388.19,-228.95 2445.2,-212.42"/>
<polygon fill="midnightblue" stroke="midnightblue" points="2446.48,-215.69 2455.11,-209.55 2444.53,-208.97 2446.48,-215.69"/>
</g>
<!-- Node3 -->
<g id="node3" class="node">
<title>Node3</title>
<g id="a_node3"><a xlink:href="_field_desc_types_8_h.html" target="_top" xlink:title=" ">
<polygon fill="white" stroke="black" points="673.5,-0.5 673.5,-19.5 849.5,-19.5 849.5,-0.5 673.5,-0.5"/>
<text text-anchor="middle" x="761.5" y="-7.5" font-family="Helvetica,sans-Serif" font-size="10.00">amr&#45;wind/core/FieldDescTypes.H</text>
</a>
</g>
</g>
<!-- Node2&#45;&gt;Node3 -->
<g id="edge2" class="edge">
<title>Node2&#45;&gt;Node3</title>
<path fill="none" stroke="midnightblue" d="M1323.33,-184.84C1307.37,-175 1280.77,-158.31 1258.5,-143 1239.38,-129.86 1237.84,-121.09 1216.5,-112 1129.38,-74.88 1099.02,-96.16 1006.5,-76 996.45,-73.81 870.48,-40.17 803.21,-22.17"/>
<polygon fill="midnightblue" stroke="midnightblue" points="803.91,-18.73 793.34,-19.53 802.1,-25.5 803.91,-18.73"/>
</g>
<!-- Node4 -->
<g id="node4" class="node">
<title>Node4</title>
<g id="a_node4"><a xlink:href="_field_8_h.html" target="_top" xlink:title=" ">
<polygon fill="white" stroke="black" points="1267.5,-118 1267.5,-137 1391.5,-137 1391.5,-118 1267.5,-118"/>
<text text-anchor="middle" x="1329.5" y="-125" font-family="Helvetica,sans-Serif" font-size="10.00">amr&#45;wind/core/Field.H</text>
</a>
</g>
</g>
<!-- Node2&#45;&gt;Node4 -->
<g id="edge3" class="edge">
<title>Node2&#45;&gt;Node4</title>
<path fill="none" stroke="midnightblue" d="M1336.42,-184.73C1335.25,-175.18 1333.33,-159.62 1331.81,-147.28"/>
<polygon fill="midnightblue" stroke="midnightblue" points="1335.26,-146.62 1330.56,-137.13 1328.31,-147.48 1335.26,-146.62"/>
</g>
<!-- Node11 -->
<g id="node11" class="node">
<title>Node11</title>
<g id="a_node11"><a xlink:title=" ">
<polygon fill="white" stroke="#bfbfbf" points="2395,-56.5 2395,-75.5 2482,-75.5 2482,-56.5 2395,-56.5"/>
<text text-anchor="middle" x="2438.5" y="-63.5" font-family="Helvetica,sans-Serif" font-size="10.00">AMReX_Gpu.H</text>
</a>
</g>
</g>
<!-- Node2&#45;&gt;Node11 -->
<g id="edge18" class="edge">
<title>Node2&#45;&gt;Node11</title>
<path fill="none" stroke="midnightblue" d="M1415.6,-188.1C1510.13,-180.69 1663.17,-165.65 1715.5,-143 1735.5,-134.34 1733.22,-119.98 1753.5,-112 1868.05,-66.92 2243.78,-65.29 2384.58,-66.34"/>
<polygon fill="midnightblue" stroke="midnightblue" points="2384.67,-69.84 2394.7,-66.43 2384.73,-62.84 2384.67,-69.84"/>
</g>
<!-- Node15 -->
<g id="node15" class="node">
<title>Node15</title>
<g id="a_node15"><a xlink:title=" ">
<polygon fill="white" stroke="#bfbfbf" points="1091,-118 1091,-137 1208,-137 1208,-118 1091,-118"/>
<text text-anchor="middle" x="1149.5" y="-125" font-family="Helvetica,sans-Serif" font-size="10.00">AMReX_FArrayBox.H</text>
</a>
</g>
</g>
<!-- Node2&#45;&gt;Node15 -->
<g id="edge19" class="edge">
<title>Node2&#45;&gt;Node15</title>
<path fill="none" stroke="midnightblue" d="M1312.54,-184.87C1279.58,-173.47 1221.38,-153.35 1184.17,-140.49"/>
<polygon fill="midnightblue" stroke="midnightblue" points="1184.86,-137.02 1174.27,-137.06 1182.58,-143.64 1184.86,-137.02"/>
</g>
<!-- Node16 -->
<g id="node16" class="node">
<title>Node16</title>
<g id="a_node16"><a xlink:title=" ">
<polygon fill="white" stroke="#bfbfbf" points="2467,-118 2467,-137 2582,-137 2582,-118 2467,-118"/>
<text text-anchor="middle" x="2524.5" y="-125" font-family="Helvetica,sans-Serif" font-size="10.00">AMReX_Geometry.H</text>
</a>
</g>
</g>
<!-- Node2&#45;&gt;Node16 -->
<g id="edge20" class="edge">
<title>Node2&#45;&gt;Node16</title>
<path fill="none" stroke="midnightblue" d="M1415.53,-188.2C1460.29,-185.27 1517.54,-181.68 1568.5,-179 1946.54,-159.14 2042.46,-176.93 2419.5,-143 2432.64,-141.82 2446.67,-140.16 2460.04,-138.38"/>
<polygon fill="midnightblue" stroke="midnightblue" points="2460.68,-141.83 2470.12,-137.01 2459.73,-134.89 2460.68,-141.83"/>
</g>
<!-- Node17 -->
<g id="node17" class="node">
<title>Node17</title>
<g id="a_node17"><a xlink:title=" ">
<polygon fill="white" stroke="#bfbfbf" points="790,-56.5 790,-75.5 921,-75.5 921,-56.5 790,-56.5"/>
<text text-anchor="middle" x="855.5" y="-63.5" font-family="Helvetica,sans-Serif" font-size="10.00">AMReX_PhysBCFunct.H</text>
</a>
</g>
</g>
<!-- Node2&#45;&gt;Node17 -->
<g id="edge21" class="edge">
<title>Node2&#45;&gt;Node17</title>
<path fill="none" stroke="midnightblue" d="M1279.64,-184.98C1227.31,-176.6 1148.43,-162.26 1081.5,-143 1044.46,-132.34 1036.93,-124.61 1000.5,-112 964.96,-99.7 924,-87.13 894.69,-78.42"/>
<polygon fill="midnightblue" stroke="midnightblue" points="895.42,-74.98 884.84,-75.5 893.44,-81.69 895.42,-74.98"/>
</g>
<!-- Node4&#45;&gt;Node3 -->
<g id="edge12" class="edge">
<title>Node4&#45;&gt;Node3</title>
<path fill="none" stroke="midnightblue" d="M1304.89,-117.94C1277.66,-108.32 1232.58,-91.95 1194.5,-76 1175.06,-67.86 1171.78,-61.73 1151.5,-56 1054.63,-28.66 939.73,-17.88 859.85,-13.67"/>
<polygon fill="midnightblue" stroke="midnightblue" points="859.96,-10.17 849.79,-13.16 859.61,-17.16 859.96,-10.17"/>
</g>
<!-- Node5 -->
<g id="node5" class="node">
<title>Node5</title>
<g id="a_node5"><a xlink:title=" ">
<polygon fill="white" stroke="#bfbfbf" points="307.5,-0.5 307.5,-19.5 351.5,-19.5 351.5,-0.5 307.5,-0.5"/>
<text text-anchor="middle" x="329.5" y="-7.5" font-family="Helvetica,sans-Serif" font-size="10.00">string</text>
</a>
</g>
</g>
<!-- Node4&#45;&gt;Node5 -->
<g id="edge4" class="edge">
<title>Node4&#45;&gt;Node5</title>
<path fill="none" stroke="midnightblue" d="M1288.19,-117.94C1251.44,-109.59 1196.69,-95.32 1151.5,-76 1135.38,-69.11 1134.29,-61.04 1117.5,-56 969.6,-11.58 577.51,-31.36 423.5,-20 402.86,-18.48 379.72,-16.27 361.57,-14.42"/>
<polygon fill="midnightblue" stroke="midnightblue" points="361.82,-10.93 351.51,-13.38 361.1,-17.89 361.82,-10.93"/>
</g>
<!-- Node6 -->
<g id="node6" class="node">
<title>Node6</title>
<g id="a_node6"><a xlink:title=" ">
<polygon fill="white" stroke="#bfbfbf" points="1203.5,-56.5 1203.5,-75.5 1261.5,-75.5 1261.5,-56.5 1203.5,-56.5"/>
<text text-anchor="middle" x="1232.5" y="-63.5" font-family="Helvetica,sans-Serif" font-size="10.00">memory</text>
</a>
</g>
</g>
<!-- Node4&#45;&gt;Node6 -->
<g id="edge5" class="edge">
<title>Node4&#45;&gt;Node6</title>
<path fill="none" stroke="midnightblue" d="M1315.6,-117.98C1299.83,-108.3 1273.86,-92.37 1255.15,-80.89"/>
<polygon fill="midnightblue" stroke="midnightblue" points="1256.73,-77.75 1246.37,-75.51 1253.07,-83.72 1256.73,-77.75"/>
</g>
<!-- Node7 -->
<g id="node7" class="node">
<title>Node7</title>
<g id="a_node7"><a xlink:title=" ">
<polygon fill="white" stroke="#bfbfbf" points="1016,-56.5 1016,-75.5 1109,-75.5 1109,-56.5 1016,-56.5"/>
<text text-anchor="middle" x="1062.5" y="-63.5" font-family="Helvetica,sans-Serif" font-size="10.00">unordered_map</text>
</a>
</g>
</g>
<!-- Node4&#45;&gt;Node7 -->
<g id="edge6" class="edge">
<title>Node4&#45;&gt;Node7</title>
<path fill="none" stroke="midnightblue" d="M1291.25,-117.98C1243.66,-107.37 1162.39,-89.26 1110.62,-77.72"/>
<polygon fill="midnightblue" stroke="midnightblue" points="1111.21,-74.27 1100.68,-75.51 1109.68,-81.1 1111.21,-74.27"/>
</g>
<!-- Node8 -->
<g id="node8" class="node">
<title>Node8</title>
<g id="a_node8"><a xlink:title=" ">
<polygon fill="white" stroke="#bfbfbf" points="1812.5,-56.5 1812.5,-75.5 1876.5,-75.5 1876.5,-56.5 1812.5,-56.5"/>
<text text-anchor="middle" x="1844.5" y="-63.5" font-family="Helvetica,sans-Serif" font-size="10.00">algorithm</text>
</a>
</g>
</g>
<!-- Node4&#45;&gt;Node8 -->
<g id="edge7" class="edge">
<title>Node4&#45;&gt;Node8</title>
<path fill="none" stroke="midnightblue" d="M1391.53,-122.08C1480.39,-115.26 1649.22,-100.51 1802.28,-76.04"/>
<polygon fill="midnightblue" stroke="midnightblue" points="1803.02,-79.46 1812.34,-74.41 1801.9,-72.55 1803.02,-79.46"/>
</g>
<!-- Node9 -->
<g id="node9" class="node">
<title>Node9</title>
<g id="a_node9"><a xlink:title=" ">
<polygon fill="white" stroke="#bfbfbf" points="1241,-0.5 1241,-19.5 1350,-19.5 1350,-0.5 1241,-0.5"/>
<text text-anchor="middle" x="1295.5" y="-7.5" font-family="Helvetica,sans-Serif" font-size="10.00">AMReX_MultiFab.H</text>
</a>
</g>
</g>
<!-- Node4&#45;&gt;Node9 -->
<g id="edge8" class="edge">
<title>Node4&#45;&gt;Node9</title>
<path fill="none" stroke="midnightblue" d="M1391.59,-125.87C1470.53,-122.89 1591.49,-109.77 1546.5,-56 1523.21,-28.16 1426.77,-17.52 1360.45,-13.47"/>
<polygon fill="midnightblue" stroke="midnightblue" points="1360.27,-9.96 1350.08,-12.88 1359.87,-16.94 1360.27,-9.96"/>
</g>
<!-- Node10 -->
<g id="node10" class="node">
<title>Node10</title>
<g id="a_node10"><a xlink:title=" ">
<polygon fill="white" stroke="#bfbfbf" points="1280,-56.5 1280,-75.5 1379,-75.5 1379,-56.5 1280,-56.5"/>
<text text-anchor="middle" x="1329.5" y="-63.5" font-family="Helvetica,sans-Serif" font-size="10.00">AMReX_BCRec.H</text>
</a>
</g>
</g>
<!-- Node4&#45;&gt;Node10 -->
<g id="edge9" class="edge">
<title>Node4&#45;&gt;Node10</title>
<path fill="none" stroke="midnightblue" d="M1329.5,-117.98C1329.5,-109.58 1329.5,-96.48 1329.5,-85.66"/>
<polygon fill="midnightblue" stroke="midnightblue" points="1333,-85.51 1329.5,-75.51 1326,-85.51 1333,-85.51"/>
</g>
<!-- Node4&#45;&gt;Node11 -->
<g id="edge10" class="edge">
<title>Node4&#45;&gt;Node11</title>
<path fill="none" stroke="midnightblue" d="M1391.68,-122.2C1436.18,-119.18 1497.52,-115.13 1551.5,-112 1866.93,-93.7 2245.69,-75.86 2384.31,-69.47"/>
<polygon fill="midnightblue" stroke="midnightblue" points="2384.82,-72.95 2394.65,-69 2384.5,-65.96 2384.82,-72.95"/>
</g>
<!-- Node12 -->
<g id="node12" class="node">
<title>Node12</title>
<g id="a_node12"><a xlink:href="incflo__enums_8_h.html" target="_top" xlink:title=" ">
<polygon fill="white" stroke="black" points="1397,-56.5 1397,-75.5 1538,-75.5 1538,-56.5 1397,-56.5"/>
<text text-anchor="middle" x="1467.5" y="-63.5" font-family="Helvetica,sans-Serif" font-size="10.00">amr&#45;wind/incflo_enums.H</text>
</a>
</g>
</g>
<!-- Node4&#45;&gt;Node12 -->
<g id="edge11" class="edge">
<title>Node4&#45;&gt;Node12</title>
<path fill="none" stroke="midnightblue" d="M1349.27,-117.98C1372.64,-107.9 1411.71,-91.05 1438.5,-79.5"/>
<polygon fill="midnightblue" stroke="midnightblue" points="1439.97,-82.68 1447.76,-75.51 1437.2,-76.25 1439.97,-82.68"/>
</g>
<!-- Node13 -->
<g id="node13" class="node">
<title>Node13</title>
<g id="a_node13"><a xlink:href="_view_field_8_h.html" target="_top" xlink:title=" ">
<polygon fill="white" stroke="black" points="509.5,-56.5 509.5,-75.5 657.5,-75.5 657.5,-56.5 509.5,-56.5"/>
<text text-anchor="middle" x="583.5" y="-63.5" font-family="Helvetica,sans-Serif" font-size="10.00">amr&#45;wind/core/ViewField.H</text>
</a>
</g>
</g>
<!-- Node4&#45;&gt;Node13 -->
<g id="edge13" class="edge">
<title>Node4&#45;&gt;Node13</title>
<path fill="none" stroke="midnightblue" d="M1267.99,-117.96C1251.31,-115.83 1233.23,-113.67 1216.5,-112 1020.49,-92.47 789.52,-78.27 668.02,-71.48"/>
<polygon fill="midnightblue" stroke="midnightblue" points="667.86,-67.97 657.68,-70.91 667.47,-74.96 667.86,-67.97"/>
</g>
<!-- Node13&#45;&gt;Node3 -->
<g id="edge15" class="edge">
<title>Node13&#45;&gt;Node3</title>
<path fill="none" stroke="midnightblue" d="M611.7,-56.44C641.91,-47.28 690.01,-32.69 723.53,-22.52"/>
<polygon fill="midnightblue" stroke="midnightblue" points="724.87,-25.77 733.43,-19.52 722.84,-19.07 724.87,-25.77"/>
</g>
<!-- Node13&#45;&gt;Node5 -->
<g id="edge14" class="edge">
<title>Node13&#45;&gt;Node5</title>
<path fill="none" stroke="midnightblue" d="M543.25,-56.44C493.03,-45.77 408.13,-27.72 361.89,-17.89"/>
<polygon fill="midnightblue" stroke="midnightblue" points="362.33,-14.4 351.82,-15.75 360.87,-21.25 362.33,-14.4"/>
</g>
<!-- Node13&#45;&gt;Node9 -->
<g id="edge16" class="edge">
<title>Node13&#45;&gt;Node9</title>
<path fill="none" stroke="midnightblue" d="M657.68,-59.37C797.58,-48.76 1098.18,-25.97 1230.6,-15.92"/>
<polygon fill="midnightblue" stroke="midnightblue" points="1230.9,-19.41 1240.6,-15.16 1230.37,-12.43 1230.9,-19.41"/>
</g>
<!-- Node14 -->
<g id="node14" class="node">
<title>Node14</title>
<g id="a_node14"><a xlink:title=" ">
<polygon fill="white" stroke="#bfbfbf" points="432.5,-0.5 432.5,-19.5 530.5,-19.5 530.5,-0.5 432.5,-0.5"/>
<text text-anchor="middle" x="481.5" y="-7.5" font-family="Helvetica,sans-Serif" font-size="10.00">AMReX_Vector.H</text>
</a>
</g>
</g>
<!-- Node13&#45;&gt;Node14 -->
<g id="edge17" class="edge">
<title>Node13&#45;&gt;Node14</title>
<path fill="none" stroke="midnightblue" d="M567.11,-56.32C550.83,-47.7 525.63,-34.36 506.78,-24.39"/>
<polygon fill="midnightblue" stroke="midnightblue" points="508.32,-21.24 497.85,-19.65 505.05,-27.43 508.32,-21.24"/>
</g>
<!-- Node18&#45;&gt;Node2 -->
<g id="edge35" class="edge">
<title>Node18&#45;&gt;Node2</title>
<path fill="none" stroke="midnightblue" d="M1654.13,-247.74C1579.63,-235.44 1468.39,-217.09 1399.53,-205.73"/>
<polygon fill="midnightblue" stroke="midnightblue" points="1399.7,-202.21 1389.27,-204.04 1398.57,-209.12 1399.7,-202.21"/>
</g>
<!-- Node18&#45;&gt;Node3 -->
<g id="edge30" class="edge">
<title>Node18&#45;&gt;Node3</title>
<path fill="none" stroke="midnightblue" d="M1654.4,-252.93C1623.89,-246.17 1590.84,-233.53 1568.5,-210 1547.35,-187.72 1556.18,-173.36 1551.5,-143 1550.02,-133.43 1553.35,-62.85 1546.5,-56 1522.59,-32.09 1065.37,-18.23 859.96,-13.19"/>
<polygon fill="midnightblue" stroke="midnightblue" points="859.86,-9.69 849.78,-12.94 859.69,-16.69 859.86,-9.69"/>
</g>
<!-- Node18&#45;&gt;Node4 -->
<g id="edge23" class="edge">
<title>Node18&#45;&gt;Node4</title>
<path fill="none" stroke="midnightblue" d="M1658.16,-246.41C1616.68,-237.63 1564.14,-225.12 1518.5,-210 1458.82,-190.22 1391.89,-159.13 1355.87,-141.62"/>
<polygon fill="midnightblue" stroke="midnightblue" points="1357.08,-138.32 1346.56,-137.06 1354.01,-144.6 1357.08,-138.32"/>
</g>
<!-- Node18&#45;&gt;Node9 -->
<g id="edge37" class="edge">
<title>Node18&#45;&gt;Node9</title>
<path fill="none" stroke="midnightblue" d="M1759.14,-246.44C1822.16,-212.66 1966.27,-124.67 1902.5,-56 1866.2,-16.91 1509.59,-11.49 1360.5,-10.94"/>
<polygon fill="midnightblue" stroke="midnightblue" points="1360.14,-7.44 1350.13,-10.91 1360.12,-14.44 1360.14,-7.44"/>
</g>
<!-- Node18&#45;&gt;Node17 -->
<g id="edge39" class="edge">
<title>Node18&#45;&gt;Node17</title>
<path fill="none" stroke="midnightblue" d="M1654.27,-258.74C1517.77,-253.33 1226.94,-231.43 1000.5,-143 955.31,-125.35 905.91,-97.45 878.01,-80.81"/>
<polygon fill="midnightblue" stroke="midnightblue" points="879.79,-77.79 869.41,-75.63 876.17,-83.79 879.79,-77.79"/>
</g>
<!-- Node18&#45;&gt;Node19 -->
<g id="edge24" class="edge">
<title>Node18&#45;&gt;Node19</title>
<path fill="none" stroke="midnightblue" d="M1803.13,-246.48C1865.22,-234.32 1953.69,-217 2009.84,-206.01"/>
<polygon fill="midnightblue" stroke="midnightblue" points="2010.8,-209.38 2019.94,-204.03 2009.45,-202.52 2010.8,-209.38"/>
</g>
<!-- Node20 -->
<g id="node20" class="node">
<title>Node20</title>
<g id="a_node20"><a xlink:title=" ">
<polygon fill="white" stroke="#bfbfbf" points="1928.5,-118 1928.5,-137 2020.5,-137 2020.5,-118 1928.5,-118"/>
<text text-anchor="middle" x="1974.5" y="-125" font-family="Helvetica,sans-Serif" font-size="10.00">AMReX_REAL.H</text>
</a>
</g>
</g>
<!-- Node18&#45;&gt;Node20 -->
<g id="edge38" class="edge">
<title>Node18&#45;&gt;Node20</title>
<path fill="none" stroke="midnightblue" d="M1808.93,-250.88C1843.52,-243.75 1883.41,-231.39 1914.5,-210 1938.19,-193.7 1956.12,-164.92 1965.96,-146.29"/>
<polygon fill="midnightblue" stroke="midnightblue" points="1969.21,-147.63 1970.59,-137.13 1962.96,-144.48 1969.21,-147.63"/>
</g>
<!-- Node24 -->
<g id="node24" class="node">
<title>Node24</title>
<g id="a_node24"><a xlink:href="_field_utils_8_h.html" target="_top" xlink:title=" ">
<polygon fill="white" stroke="black" points="1560.5,-118 1560.5,-137 1706.5,-137 1706.5,-118 1560.5,-118"/>
<text text-anchor="middle" x="1633.5" y="-125" font-family="Helvetica,sans-Serif" font-size="10.00">amr&#45;wind/core/FieldUtils.H</text>
</a>
</g>
</g>
<!-- Node18&#45;&gt;Node24 -->
<g id="edge31" class="edge">
<title>Node18&#45;&gt;Node24</title>
<path fill="none" stroke="midnightblue" d="M1731.13,-246.23C1730.02,-228.84 1725.94,-199.3 1711.5,-179 1699.69,-162.41 1680.57,-149.9 1664.21,-141.48"/>
<polygon fill="midnightblue" stroke="midnightblue" points="1665.5,-138.22 1654.97,-137 1662.44,-144.52 1665.5,-138.22"/>
</g>
<!-- Node26 -->
<g id="node26" class="node">
<title>Node26</title>
<g id="a_node26"><a xlink:title=" ">
<polygon fill="white" stroke="#bfbfbf" points="1762.5,-118 1762.5,-137 1872.5,-137 1872.5,-118 1762.5,-118"/>
<text text-anchor="middle" x="1817.5" y="-125" font-family="Helvetica,sans-Serif" font-size="10.00">AMReX_AmrCore.H</text>
</a>
</g>
</g>
<!-- Node18&#45;&gt;Node26 -->
<g id="edge36" class="edge">
<title>Node18&#45;&gt;Node26</title>
<path fill="none" stroke="midnightblue" d="M1740.7,-246.37C1756.6,-221.97 1789.16,-172 1806.33,-145.65"/>
<polygon fill="midnightblue" stroke="midnightblue" points="1809.37,-147.39 1811.9,-137.1 1803.51,-143.57 1809.37,-147.39"/>
</g>
<!-- Node27 -->
<g id="node27" class="node">
<title>Node27</title>
<g id="a_node27"><a xlink:title=" ">
<polygon fill="white" stroke="#bfbfbf" points="1578,-185 1578,-204 1703,-204 1703,-185 1578,-185"/>
<text text-anchor="middle" x="1640.5" y="-192" font-family="Helvetica,sans-Serif" font-size="10.00">AMReX_FillPatchUtil.H</text>
</a>
</g>
</g>
<!-- Node18&#45;&gt;Node27 -->
<g id="edge40" class="edge">
<title>Node18&#45;&gt;Node27</title>
<path fill="none" stroke="midnightblue" d="M1711.75,-246.4C1696.64,-235.6 1675.86,-220.76 1660.64,-209.89"/>
<polygon fill="midnightblue" stroke="midnightblue" points="1662.58,-206.97 1652.41,-204.01 1658.51,-212.67 1662.58,-206.97"/>
</g>
<!-- Node19&#45;&gt;Node8 -->
<g id="edge28" class="edge">
<title>Node19&#45;&gt;Node8</title>
<path fill="none" stroke="midnightblue" d="M2062.46,-184.87C2059.98,-168.16 2052.11,-131.32 2029.5,-112 1989.51,-77.83 1927.74,-68.75 1886.73,-66.78"/>
<polygon fill="midnightblue" stroke="midnightblue" points="1886.64,-63.27 1876.52,-66.41 1886.39,-70.27 1886.64,-63.27"/>
</g>
<!-- Node19&#45;&gt;Node20 -->
<g id="edge25" class="edge">
<title>Node19&#45;&gt;Node20</title>
<path fill="none" stroke="midnightblue" d="M2051.5,-184.73C2036.95,-174.11 2012.22,-156.05 1994.72,-143.26"/>
<polygon fill="midnightblue" stroke="midnightblue" points="1996.45,-140.2 1986.31,-137.13 1992.32,-145.85 1996.45,-140.2"/>
</g>
<!-- Node21 -->
<g id="node21" class="node">
<title>Node21</title>
<g id="a_node21"><a xlink:title=" ">
<polygon fill="white" stroke="#bfbfbf" points="2276.5,-118 2276.5,-137 2410.5,-137 2410.5,-118 2276.5,-118"/>
<text text-anchor="middle" x="2343.5" y="-125" font-family="Helvetica,sans-Serif" font-size="10.00">AMReX_GpuQualifiers.H</text>
</a>
</g>
</g>
<!-- Node19&#45;&gt;Node21 -->
<g id="edge26" class="edge">
<title>Node19&#45;&gt;Node21</title>
<path fill="none" stroke="midnightblue" d="M2100.39,-184.94C2150.86,-173.22 2241.44,-152.19 2296.65,-139.38"/>
<polygon fill="midnightblue" stroke="midnightblue" points="2297.58,-142.75 2306.53,-137.08 2295.99,-135.94 2297.58,-142.75"/>
</g>
<!-- Node22 -->
<g id="node22" class="node">
<title>Node22</title>
<g id="a_node22"><a xlink:title=" ">
<polygon fill="white" stroke="#bfbfbf" points="2076.5,-118 2076.5,-137 2192.5,-137 2192.5,-118 2076.5,-118"/>
<text text-anchor="middle" x="2134.5" y="-125" font-family="Helvetica,sans-Serif" font-size="10.00">AMReX_Extension.H</text>
</a>
</g>
</g>
<!-- Node19&#45;&gt;Node22 -->
<g id="edge27" class="edge">
<title>Node19&#45;&gt;Node22</title>
<path fill="none" stroke="midnightblue" d="M2073.08,-184.73C2084.47,-174.31 2103.69,-156.71 2117.6,-143.97"/>
<polygon fill="midnightblue" stroke="midnightblue" points="2120.06,-146.46 2125.08,-137.13 2115.34,-141.3 2120.06,-146.46"/>
</g>
<!-- Node23 -->
<g id="node23" class="node">
<title>Node23</title>
<g id="a_node23"><a xlink:title=" ">
<polygon fill="white" stroke="#bfbfbf" points="2211,-118 2211,-137 2258,-137 2258,-118 2211,-118"/>
<text text-anchor="middle" x="2234.5" y="-125" font-family="Helvetica,sans-Serif" font-size="10.00">cmath</text>
</a>
</g>
</g>
<!-- Node19&#45;&gt;Node23 -->
<g id="edge29" class="edge">
<title>Node19&#45;&gt;Node23</title>
<path fill="none" stroke="midnightblue" d="M2088.36,-184.94C2116.13,-175.25 2162.33,-158.76 2201.5,-143 2202.92,-142.43 2204.36,-141.84 2205.82,-141.23"/>
<polygon fill="midnightblue" stroke="midnightblue" points="2207.57,-144.29 2215.39,-137.14 2204.82,-137.85 2207.57,-144.29"/>
</g>
<!-- Node24&#45;&gt;Node3 -->
<g id="edge32" class="edge">
<title>Node24&#45;&gt;Node3</title>
<path fill="none" stroke="midnightblue" d="M1629.97,-117.84C1623.1,-102.24 1606.3,-69.78 1580.5,-56 1518.39,-22.83 1063.38,-14.05 859.66,-11.78"/>
<polygon fill="midnightblue" stroke="midnightblue" points="859.59,-8.28 849.56,-11.67 859.52,-15.28 859.59,-8.28"/>
</g>
<!-- Node24&#45;&gt;Node9 -->
<g id="edge33" class="edge">
<title>Node24&#45;&gt;Node9</title>
<path fill="none" stroke="midnightblue" d="M1684.36,-118C1756.12,-105.76 1879.11,-83.8 1885.5,-76 1891.13,-69.12 1891.54,-62.52 1885.5,-56 1850.38,-18.1 1506.12,-11.98 1360.26,-11.09"/>
<polygon fill="midnightblue" stroke="midnightblue" points="1360.13,-7.59 1350.11,-11.04 1360.09,-14.59 1360.13,-7.59"/>
</g>
<!-- Node25 -->
<g id="node25" class="node">
<title>Node25</title>
<g id="a_node25"><a xlink:title=" ">
<polygon fill="white" stroke="#bfbfbf" points="1670.5,-56.5 1670.5,-75.5 1794.5,-75.5 1794.5,-56.5 1670.5,-56.5"/>
<text text-anchor="middle" x="1732.5" y="-63.5" font-family="Helvetica,sans-Serif" font-size="10.00">AMReX_Interpolater.H</text>
</a>
</g>
</g>
<!-- Node24&#45;&gt;Node25 -->
<g id="edge34" class="edge">
<title>Node24&#45;&gt;Node25</title>
<path fill="none" stroke="midnightblue" d="M1647.68,-117.98C1663.86,-108.25 1690.53,-92.23 1709.64,-80.74"/>
<polygon fill="midnightblue" stroke="midnightblue" points="1711.57,-83.66 1718.34,-75.51 1707.97,-77.66 1711.57,-83.66"/>
</g>
<!-- Node28&#45;&gt;Node3 -->
<g id="edge44" class="edge">
<title>Node28&#45;&gt;Node3</title>
<path fill="none" stroke="midnightblue" d="M820.06,-184.73C812.49,-165.29 794,-117.07 780.5,-76 775.39,-60.47 770.23,-42.63 766.58,-29.57"/>
<polygon fill="midnightblue" stroke="midnightblue" points="769.94,-28.59 763.9,-19.89 763.19,-30.46 769.94,-28.59"/>
</g>
<!-- Node28&#45;&gt;Node4 -->
<g id="edge46" class="edge">
<title>Node28&#45;&gt;Node4</title>
<path fill="none" stroke="midnightblue" d="M889.91,-184.97C984.95,-172.76 1159.08,-150.39 1257.25,-137.78"/>
<polygon fill="midnightblue" stroke="midnightblue" points="1257.9,-141.23 1267.38,-136.48 1257.01,-134.28 1257.9,-141.23"/>
</g>
<!-- Node28&#45;&gt;Node5 -->
<g id="edge42" class="edge">
<title>Node28&#45;&gt;Node5</title>
<path fill="none" stroke="midnightblue" d="M748.87,-191.75C609.07,-187.73 318.92,-175.52 287.5,-143 260.6,-115.16 268.49,-91.68 283.5,-56 288.53,-44.05 298.44,-33.69 307.79,-25.93"/>
<polygon fill="midnightblue" stroke="midnightblue" points="309.94,-28.69 315.71,-19.81 305.66,-23.15 309.94,-28.69"/>
</g>
<!-- Node28&#45;&gt;Node7 -->
<g id="edge43" class="edge">
<title>Node28&#45;&gt;Node7</title>
<path fill="none" stroke="midnightblue" d="M855.3,-184.93C884.25,-176.45 927.67,-161.99 962.5,-143 994.19,-125.72 1026.7,-99.02 1045.73,-82.3"/>
<polygon fill="midnightblue" stroke="midnightblue" points="1048.11,-84.86 1053.24,-75.6 1043.45,-79.64 1048.11,-84.86"/>
</g>
<!-- Node28&#45;&gt;Node9 -->
<g id="edge68" class="edge">
<title>Node28&#45;&gt;Node9</title>
<path fill="none" stroke="midnightblue" d="M831.66,-184.92C855.73,-160.19 929.62,-88.45 1006.5,-56 1079.36,-25.25 1170.53,-15.26 1230.76,-12.15"/>
<polygon fill="midnightblue" stroke="midnightblue" points="1231.07,-15.64 1240.9,-11.68 1230.75,-8.65 1231.07,-15.64"/>
</g>
<!-- Node28&#45;&gt;Node24 -->
<g id="edge45" class="edge">
<title>Node28&#45;&gt;Node24</title>
<path fill="none" stroke="midnightblue" d="M898.25,-187.5C1049.72,-175.35 1391.9,-147.89 1550.23,-135.18"/>
<polygon fill="midnightblue" stroke="midnightblue" points="1550.7,-138.66 1560.39,-134.37 1550.14,-131.68 1550.7,-138.66"/>
</g>
<!-- Node28&#45;&gt;Node26 -->
<g id="edge67" class="edge">
<title>Node28&#45;&gt;Node26</title>
<path fill="none" stroke="midnightblue" d="M898.26,-191.41C1051.74,-186.64 1413.36,-172.97 1715.5,-143 1727.86,-141.77 1741.02,-140.15 1753.63,-138.42"/>
<polygon fill="midnightblue" stroke="midnightblue" points="1754.19,-141.88 1763.61,-137.03 1753.22,-134.95 1754.19,-141.88"/>
</g>
<!-- Node29 -->
<g id="node29" class="node">
<title>Node29</title>
<g id="a_node29"><a xlink:href="_int_field_8_h.html" target="_top" xlink:title=" ">
<polygon fill="white" stroke="black" points="0,-118 0,-137 137,-137 137,-118 0,-118"/>
<text text-anchor="middle" x="68.5" y="-125" font-family="Helvetica,sans-Serif" font-size="10.00">amr&#45;wind/core/IntField.H</text>
</a>
</g>
</g>
<!-- Node28&#45;&gt;Node29 -->
<g id="edge47" class="edge">
<title>Node28&#45;&gt;Node29</title>
<path fill="none" stroke="midnightblue" d="M748.57,-189.41C626.58,-182.37 377.51,-166.44 167.5,-143 156.08,-141.73 143.96,-140.14 132.25,-138.49"/>
<polygon fill="midnightblue" stroke="midnightblue" points="132.5,-134.99 122.11,-137.04 131.51,-141.92 132.5,-134.99"/>
</g>
<!-- Node30 -->
<g id="node30" class="node">
<title>Node30</title>
<g id="a_node30"><a xlink:title=" ">
<polygon fill="white" stroke="#bfbfbf" points="87.5,-56.5 87.5,-75.5 199.5,-75.5 199.5,-56.5 87.5,-56.5"/>
<text text-anchor="middle" x="143.5" y="-63.5" font-family="Helvetica,sans-Serif" font-size="10.00">AMReX_iMultiFab.H</text>
</a>
</g>
</g>
<!-- Node28&#45;&gt;Node30 -->
<g id="edge69" class="edge">
<title>Node28&#45;&gt;Node30</title>
<path fill="none" stroke="midnightblue" d="M748.97,-194.01C607.5,-193.9 305.93,-188.17 213.5,-143 187.12,-130.11 165.86,-102.63 153.95,-84.49"/>
<polygon fill="midnightblue" stroke="midnightblue" points="156.61,-82.14 148.33,-75.53 150.68,-85.86 156.61,-82.14"/>
</g>
<!-- Node31 -->
<g id="node31" class="node">
<title>Node31</title>
<g id="a_node31"><a xlink:href="_scratch_field_8_h.html" target="_top" xlink:title=" ">
<polygon fill="white" stroke="black" points="538.5,-118 538.5,-137 698.5,-137 698.5,-118 538.5,-118"/>
<text text-anchor="middle" x="618.5" y="-125" font-family="Helvetica,sans-Serif" font-size="10.00">amr&#45;wind/core/ScratchField.H</text>
</a>
</g>
</g>
<!-- Node28&#45;&gt;Node31 -->
<g id="edge51" class="edge">
<title>Node28&#45;&gt;Node31</title>
<path fill="none" stroke="midnightblue" d="M796.28,-184.87C760.03,-173.38 695.8,-153.01 655.27,-140.16"/>
<polygon fill="midnightblue" stroke="midnightblue" points="656.1,-136.75 645.51,-137.06 653.98,-143.42 656.1,-136.75"/>
</g>
<!-- Node33 -->
<g id="node33" class="node">
<title>Node33</title>
<g id="a_node33"><a xlink:href="_int_scratch_field_8_h.html" target="_top" xlink:title=" ">
<polygon fill="white" stroke="black" points="297,-112.5 297,-142.5 436,-142.5 436,-112.5 297,-112.5"/>
<text text-anchor="start" x="305" y="-130.5" font-family="Helvetica,sans-Serif" font-size="10.00">amr&#45;wind/core/IntScratch</text>
<text text-anchor="middle" x="366.5" y="-119.5" font-family="Helvetica,sans-Serif" font-size="10.00">Field.H</text>
</a>
</g>
</g>
<!-- Node28&#45;&gt;Node33 -->
<g id="edge59" class="edge">
<title>Node28&#45;&gt;Node33</title>
<path fill="none" stroke="midnightblue" d="M763.29,-184.94C681.87,-173.36 536.5,-152.68 446.13,-139.83"/>
<polygon fill="midnightblue" stroke="midnightblue" points="446.6,-136.36 436.2,-138.41 445.61,-143.29 446.6,-136.36"/>
</g>
<!-- Node29&#45;&gt;Node3 -->
<g id="edge49" class="edge">
<title>Node29&#45;&gt;Node3</title>
<path fill="none" stroke="midnightblue" d="M66.64,-117.57C64.05,-102.42 61.46,-71.81 78.5,-56 89.07,-46.19 476.56,-25.37 663.09,-15.89"/>
<polygon fill="midnightblue" stroke="midnightblue" points="663.37,-19.38 673.18,-15.38 663.02,-12.39 663.37,-19.38"/>
</g>
<!-- Node29&#45;&gt;Node5 -->
<g id="edge48" class="edge">
<title>Node29&#45;&gt;Node5</title>
<path fill="none" stroke="midnightblue" d="M60.79,-117.65C49.14,-103.17 29.95,-74.21 45.5,-56 77.58,-18.44 229.8,-12.06 297.22,-11.1"/>
<polygon fill="midnightblue" stroke="midnightblue" points="297.33,-14.6 307.29,-10.99 297.25,-7.6 297.33,-14.6"/>
</g>
<!-- Node29&#45;&gt;Node30 -->
<g id="edge50" class="edge">
<title>Node29&#45;&gt;Node30</title>
<path fill="none" stroke="midnightblue" d="M79.25,-117.98C91.05,-108.61 110.24,-93.38 124.58,-82.01"/>
<polygon fill="midnightblue" stroke="midnightblue" points="127.12,-84.47 132.77,-75.51 122.76,-78.98 127.12,-84.47"/>
</g>
<!-- Node31&#45;&gt;Node3 -->
<g id="edge54" class="edge">
<title>Node31&#45;&gt;Node3</title>
<path fill="none" stroke="midnightblue" d="M629.25,-117.82C653.37,-98.34 712.07,-50.92 742.5,-26.34"/>
<polygon fill="midnightblue" stroke="midnightblue" points="745.05,-28.79 750.63,-19.78 740.65,-23.34 745.05,-28.79"/>
</g>
<!-- Node31&#45;&gt;Node5 -->
<g id="edge52" class="edge">
<title>Node31&#45;&gt;Node5</title>
<path fill="none" stroke="midnightblue" d="M595.35,-117.96C568.74,-108.1 523.82,-91.25 485.5,-76 441.22,-58.38 390.33,-36.95 359.05,-23.64"/>
<polygon fill="midnightblue" stroke="midnightblue" points="360.18,-20.32 349.61,-19.62 357.44,-26.76 360.18,-20.32"/>
</g>
<!-- Node31&#45;&gt;Node9 -->
<g id="edge56" class="edge">
<title>Node31&#45;&gt;Node9</title>
<path fill="none" stroke="midnightblue" d="M633.55,-117.96C661.49,-102.57 723.72,-70.43 780.5,-56 938.66,-15.82 1131.93,-10.01 1230.67,-10.02"/>
<polygon fill="midnightblue" stroke="midnightblue" points="1230.78,-13.52 1240.79,-10.05 1230.8,-6.52 1230.78,-13.52"/>
</g>
<!-- Node31&#45;&gt;Node13 -->
<g id="edge55" class="edge">
<title>Node31&#45;&gt;Node13</title>
<path fill="none" stroke="midnightblue" d="M613.49,-117.98C608.34,-109.23 600.19,-95.37 593.68,-84.31"/>
<polygon fill="midnightblue" stroke="midnightblue" points="596.59,-82.35 588.51,-75.51 590.56,-85.9 596.59,-82.35"/>
</g>
<!-- Node31&#45;&gt;Node14 -->
<g id="edge57" class="edge">
<title>Node31&#45;&gt;Node14</title>
<path fill="none" stroke="midnightblue" d="M576,-117.92C550.78,-110.75 520.01,-98.01 500.5,-76 489.18,-63.23 484.58,-44.04 482.73,-29.81"/>
<polygon fill="midnightblue" stroke="midnightblue" points="486.2,-29.31 481.76,-19.69 479.23,-29.98 486.2,-29.31"/>
</g>
<!-- Node31&#45;&gt;Node17 -->
<g id="edge58" class="edge">
<title>Node31&#45;&gt;Node17</title>
<path fill="none" stroke="midnightblue" d="M652.46,-117.98C694.34,-107.46 765.63,-89.56 811.63,-78.01"/>
<polygon fill="midnightblue" stroke="midnightblue" points="812.76,-81.34 821.61,-75.51 811.06,-74.55 812.76,-81.34"/>
</g>
<!-- Node32 -->
<g id="node32" class="node">
<title>Node32</title>
<g id="a_node32"><a xlink:title=" ">
<polygon fill="white" stroke="#bfbfbf" points="370,-56.5 370,-75.5 415,-75.5 415,-56.5 370,-56.5"/>
<text text-anchor="middle" x="392.5" y="-63.5" font-family="Helvetica,sans-Serif" font-size="10.00">utility</text>
</a>
</g>
</g>
<!-- Node31&#45;&gt;Node32 -->
<g id="edge53" class="edge">
<title>Node31&#45;&gt;Node32</title>
<path fill="none" stroke="midnightblue" d="M586.12,-117.98C543.18,-106.67 467.84,-86.83 424.89,-75.53"/>
<polygon fill="midnightblue" stroke="midnightblue" points="425.79,-72.14 415.22,-72.98 424,-78.91 425.79,-72.14"/>
</g>
<!-- Node33&#45;&gt;Node3 -->
<g id="edge62" class="edge">
<title>Node33&#45;&gt;Node3</title>
<path fill="none" stroke="midnightblue" d="M359.87,-112.41C353.55,-96.63 346.83,-71.29 360.5,-56 380.36,-33.79 550.9,-21.23 663.09,-15.3"/>
<polygon fill="midnightblue" stroke="midnightblue" points="663.28,-18.79 673.08,-14.78 662.91,-11.8 663.28,-18.79"/>
</g>
<!-- Node33&#45;&gt;Node5 -->
<g id="edge60" class="edge">
<title>Node33&#45;&gt;Node5</title>
<path fill="none" stroke="midnightblue" d="M330.51,-112.35C314.95,-104.22 298.31,-92.32 289.5,-76 280.04,-58.49 295.45,-39.15 309.8,-26.16"/>
<polygon fill="midnightblue" stroke="midnightblue" points="312.13,-28.78 317.5,-19.65 307.61,-23.43 312.13,-28.78"/>
</g>
<!-- Node33&#45;&gt;Node13 -->
<g id="edge63" class="edge">
<title>Node33&#45;&gt;Node13</title>
<path fill="none" stroke="midnightblue" d="M417.65,-112.47C455.74,-102.03 507.07,-87.96 542.48,-78.25"/>
<polygon fill="midnightblue" stroke="midnightblue" points="543.76,-81.53 552.48,-75.51 541.91,-74.78 543.76,-81.53"/>
</g>
<!-- Node33&#45;&gt;Node14 -->
<g id="edge65" class="edge">
<title>Node33&#45;&gt;Node14</title>
<path fill="none" stroke="midnightblue" d="M349.09,-112.3C333.14,-97.55 313.91,-74.13 327.5,-56 339.16,-40.45 383.85,-28.48 422.11,-20.81"/>
<polygon fill="midnightblue" stroke="midnightblue" points="423.04,-24.2 432.19,-18.86 421.71,-17.33 423.04,-24.2"/>
</g>
<!-- Node33&#45;&gt;Node17 -->
<g id="edge66" class="edge">
<title>Node33&#45;&gt;Node17</title>
<path fill="none" stroke="midnightblue" d="M436.04,-118.04C526.99,-106.97 685.78,-87.65 779.71,-76.22"/>
<polygon fill="midnightblue" stroke="midnightblue" points="780.21,-79.69 789.72,-75 779.37,-72.74 780.21,-79.69"/>
</g>
<!-- Node33&#45;&gt;Node30 -->
<g id="edge64" class="edge">
<title>Node33&#45;&gt;Node30</title>
<path fill="none" stroke="midnightblue" d="M313.93,-112.47C274.62,-101.99 221.59,-87.84 185.18,-78.12"/>
<polygon fill="midnightblue" stroke="midnightblue" points="185.95,-74.7 175.38,-75.51 184.14,-81.47 185.95,-74.7"/>
</g>
<!-- Node33&#45;&gt;Node32 -->
<g id="edge61" class="edge">
<title>Node33&#45;&gt;Node32</title>
<path fill="none" stroke="midnightblue" d="M372.66,-112.4C376.24,-104.2 380.8,-93.78 384.64,-84.99"/>
<polygon fill="midnightblue" stroke="midnightblue" points="387.92,-86.22 388.72,-75.66 381.51,-83.42 387.92,-86.22"/>
</g>
<!-- Node34&#45;&gt;Node11 -->
<g id="edge73" class="edge">
<title>Node34&#45;&gt;Node11</title>
<path fill="none" stroke="midnightblue" d="M2645.24,-179.44C2640.27,-161.15 2629.01,-129.48 2607.5,-112 2575.01,-85.59 2528.49,-74.58 2492.48,-70.04"/>
<polygon fill="midnightblue" stroke="midnightblue" points="2492.48,-66.51 2482.15,-68.87 2491.69,-73.47 2492.48,-66.51"/>
</g>
<!-- Node34&#45;&gt;Node16 -->
<g id="edge72" class="edge">
<title>Node34&#45;&gt;Node16</title>
<path fill="none" stroke="midnightblue" d="M2621.59,-179.4C2600.22,-168.19 2570.55,-152.64 2549.65,-141.69"/>
<polygon fill="midnightblue" stroke="midnightblue" points="2551.21,-138.55 2540.73,-137.01 2547.96,-144.75 2551.21,-138.55"/>
</g>
<!-- Node35&#45;&gt;Node11 -->
<g id="edge76" class="edge">
<title>Node35&#45;&gt;Node11</title>
<path fill="none" stroke="midnightblue" d="M2381.97,-179.42C2394.87,-170.52 2410.12,-157.89 2419.5,-143 2430.47,-125.59 2435.11,-102.22 2437.07,-86.01"/>
<polygon fill="midnightblue" stroke="midnightblue" points="2440.59,-85.95 2438.08,-75.66 2433.62,-85.27 2440.59,-85.95"/>
</g>
<!-- Node35&#45;&gt;Node16 -->
<g id="edge75" class="edge">
<title>Node35&#45;&gt;Node16</title>
<path fill="none" stroke="midnightblue" d="M2394.52,-179.4C2424.03,-167.84 2465.36,-151.66 2493.44,-140.66"/>
<polygon fill="midnightblue" stroke="midnightblue" points="2494.74,-143.91 2502.77,-137.01 2492.19,-137.39 2494.74,-143.91"/>
</g>
<!-- Node36&#45;&gt;Node11 -->
<g id="edge79" class="edge">
<title>Node36&#45;&gt;Node11</title>
<path fill="none" stroke="midnightblue" d="M2547.25,-179.32C2564.18,-171.45 2581.79,-159.77 2591.5,-143 2598.4,-131.08 2599.75,-123.03 2591.5,-112 2579.39,-95.82 2531.36,-83.46 2492.3,-75.83"/>
<polygon fill="midnightblue" stroke="midnightblue" points="2492.55,-72.31 2482.07,-73.9 2491.25,-79.19 2492.55,-72.31"/>
</g>
<!-- Node36&#45;&gt;Node16 -->
<g id="edge78" class="edge">
<title>Node36&#45;&gt;Node16</title>
<path fill="none" stroke="midnightblue" d="M2508.06,-179.4C2511.14,-169.86 2515.23,-157.18 2518.57,-146.86"/>
<polygon fill="midnightblue" stroke="midnightblue" points="2521.95,-147.79 2521.69,-137.19 2515.29,-145.63 2521.95,-147.79"/>
</g>
</g>
</svg>
